<svg xmlns="http://www.w3.org/2000/svg" version="1.1" xmlns:xlink="http://www.w3.org/1999/xlink" xmlns:svgjs="http://svgjs.dev/svgjs" viewBox="0 0 800 800"><defs><linearGradient x1="50%" y1="0%" x2="50%" y2="100%" id="ccchaos-grad"><stop stop-color="hsl(206, 75%, 49%)" stop-opacity="1" offset="0%"></stop><stop stop-color="hsl(331, 90%, 56%)" stop-opacity="1" offset="100%"></stop></linearGradient></defs><g stroke-width="2" stroke="url(#ccchaos-grad)" fill="none" stroke-linecap="round"><path d="M379.88 106.71C389.28 109.55 398.66 113.07 408.01 117.1 417.38 121.07 426.73 125.29 436.06 129.63 445.44 133.57 454.83 137.47 464.24 141.26 473.73 144.49 483.27 147.59 492.87 150.58 502.59 153.03 512.4 155.45 522.29 157.91 532.33 160.01 542.48 162.29 552.7 164.83 563.05 167.24 573.45 170.06 583.86 173.32 594.32 176.67 604.7 180.58 614.91 185.06 625.02 189.76 634.82 195.06 644.17 200.95 653.21 207.11 661.62 213.84 669.26 221.08 676.34 228.58 682.46 236.55 687.49 244.91 691.77 253.48 694.85 262.39 696.65 271.57 697.66 280.88 697.4 290.41 695.91 300.08 693.8 309.84 690.63 319.7 686.53 329.59 682.22 339.53 677.32 349.47 672.01 359.36 667.05 369.27 662.09 379.1 657.31 388.81 653.41 398.51 650.09 407.85 647.4 416.8 645.81 425.74 644.86 434.3 644.51 442.46 645.13 450.62 646.15 458.41 647.43 465.84 649.34 473.31 651.21 480.47 652.89 487.36 654.76 494.38 656.16 501.22 656.94 507.93 657.55 514.89 657.34 521.86 656.27 528.91 654.79 536.36 652.35 544.02 648.96 551.96 645.09 560.42 640.29 569.26 634.63 578.48 628.52 588.24 621.63 598.37 614.07 608.8 606.16 619.59 597.69 630.49 588.75 641.34 579.59 652.14 570.07 662.53 560.28 672.26 550.38 681.37 540.28 689.39 530.05 696.08 519.79 701.61 509.46 705.48 499.1 707.55 488.75 708.26 478.39 707.14 468.07 704.26 457.78 700.32 447.52 695.01 437.33 688.57 427.15 681.94 417.03 674.88 407 667.75 396.96 661.51 387.22 656 377.79 651.46 368.33 648.43 359.16 646.54 350.27 645.75 341.34 646.42 332.67 647.91 324.25 650.01 315.78 652.99 307.54 656.06 299.53 658.94 291.43 661.93 283.54 664.23 275.86 665.63 268.05 666.53 260.43 666.23 252.99 664.68 245.41 662.3 237.99 658.6 230.74 653.66 223.35 647.91 216.11 641.03 209.05 633.18 201.86 624.72 194.85 615.49 188.06 605.68 181.16 595.51 174.51 584.95 168.13 574.13 161.71 563.19 155.61 552.14 149.88 541.08 144.18 530.03 138.89 519.03 134.05 508.15 129.33 497.34 125.12 486.65 121.45 476.11 117.95 465.64 115.04 455.3 112.74 445.11 110.65 434.97 109.19 424.94 108.39 415.03 107.8 405.15 107.86 395.37 108.6 385.71 109.49 376.05 111.01 366.72 113.08 357.74 115.25 348.76 117.92 340.11 121.06 331.82 124.19 323.53 127.73 315.59 131.64 308.03 135.45 300.45 139.59 293.24 144 286.4 148.26 279.53 152.76 273 157.49 266.81 162.03 260.53 166.78 254.54 171.72 248.81 176.46 242.91 181.42 237.2 186.57 231.64 191.55 225.81 196.75 220.04 202.18 214.3 207.47 208.21 213.02 202.07 218.83 195.88 224.55 189.29 230.57 182.63 236.86 175.92 243.11 168.88 249.67 161.85 256.53 154.92 263.37 147.83 270.52 140.98 277.97 134.48 285.41 128.11 293.15 122.3 301.16 117.17 309.18 112.46 317.47 108.61 326 105.75 334.53 103.49 343.3 102.29 352.29 102.19 361.28 102.69 370.48 104.21 379.87 106.7" stroke-dasharray="5 6" transform="rotate(0, 400, 400)" opacity="0.47"></path><path d="M382.24 117.5C391.33 120.31 400.43 123.77 409.54 127.72 418.66 131.64 427.81 135.81 436.97 140.13 446.16 144.08 455.4 148.02 464.67 151.88 474.02 155.21 483.43 158.43 492.91 161.53 502.48 164.12 512.14 166.67 521.87 169.21 531.71 171.39 541.62 173.69 551.57 176.2 561.6 178.53 571.64 181.19 581.62 184.24 591.61 187.3 601.46 190.85 611.07 194.91 620.54 199.11 629.65 203.88 638.27 209.18 646.56 214.7 654.2 220.76 661.07 227.31 667.4 234.09 672.79 241.33 677.16 248.98 680.83 256.81 683.38 265 684.75 273.48 685.42 282.09 684.93 290.94 683.33 299.96 681.2 309.07 678.12 318.31 674.21 327.62 670.14 336.97 665.53 346.36 660.56 355.73 655.92 365.12 651.26 374.47 646.75 383.73 643.05 392.99 639.84 401.93 637.18 410.54 635.52 419.15 634.42 427.43 633.85 435.39 634.18 443.36 634.87 451.03 635.81 458.41 637.36 465.86 638.9 473.08 640.3 480.11 641.93 487.29 643.16 494.36 643.88 501.39 644.5 508.67 644.42 516.01 643.57 523.48 642.4 531.32 640.37 539.39 637.48 547.73 634.18 556.52 630.01 565.63 625.04 575.07 619.67 584.92 613.54 595.04 606.75 605.33 599.64 615.85 591.95 626.36 583.77 636.68 575.38 646.83 566.58 656.48 557.48 665.39 548.25 673.63 538.78 680.78 529.14 686.62 519.46 691.36 509.65 694.53 499.78 696.03 489.9 696.3 479.98 694.9 470.06 691.9 460.16 688 450.27 682.85 440.42 676.71 430.58 670.41 420.78 663.72 411.03 656.96 401.29 651.01 391.82 645.7 382.64 641.24 373.43 638.15 364.48 636.07 355.8 634.98 347.07 635.25 338.59 636.29 330.34 637.91 322.03 640.42 313.94 643.07 306.06 645.62 298.09 648.39 290.31 650.61 282.72 652.11 275.03 653.24 267.5 653.35 260.13 652.35 252.65 650.68 245.31 647.81 238.14 643.78 230.84 639.03 223.7 633.19 216.73 626.4 209.65 619.01 202.75 610.83 196.06 602 189.31 592.79 182.79 583.1 176.54 573.09 170.28 562.89 164.33 552.49 158.74 542 153.21 531.46 148.07 520.9 143.39 510.4 138.83 499.93 134.76 489.54 131.22 479.27 127.86 469.05 125.06 458.95 122.87 448.99 120.89 439.06 119.52 429.27 118.79 419.61 118.27 409.98 118.38 400.46 119.15 391.1 120.08 381.73 121.61 372.72 123.68 364.07 125.85 355.4 128.51 347.09 131.62 339.13 134.73 331.16 138.24 323.53 142.09 316.26 145.87 308.97 149.96 302.01 154.31 295.39 158.53 288.71 162.98 282.33 167.65 276.24 172.13 270.04 176.82 264.08 181.69 258.33 186.38 252.39 191.26 246.58 196.32 240.89 201.21 234.92 206.31 228.99 211.61 223.06 216.78 216.79 222.18 210.48 227.82 204.13 233.36 197.42 239.16 190.66 245.23 183.89 251.23 176.84 257.52 169.86 264.09 163.01 270.63 156.06 277.46 149.4 284.57 143.12 291.67 137.01 299.05 131.46 306.71 126.61 314.35 122.18 322.27 118.6 330.43 115.97 338.59 113.92 347 112.89 355.64 112.9 364.27 113.47 373.14 115.02 382.23 117.49" stroke-dasharray="11 6" transform="rotate(4.04, 400, 400)" opacity="0.74"></path><path d="M385.28 128.28C394.07 131.05 402.9 134.45 411.77 138.32 420.64 142.18 429.56 146.3 438.52 150.57 447.51 154.53 456.56 158.49 465.66 162.4 474.82 165.82 484.05 169.15 493.34 172.37 502.71 175.1 512.14 177.77 521.63 180.42 531.19 182.7 540.79 185.06 550.39 187.57 560.04 189.88 569.64 192.45 579.13 195.33 588.58 198.18 597.84 201.44 606.81 205.15 615.61 208.94 624.01 213.23 631.9 218.01 639.44 222.96 646.33 228.41 652.45 234.33 658.06 240.43 662.78 246.99 666.52 253.95 669.64 261.07 671.71 268.55 672.7 276.34 673.08 284.25 672.41 292.42 670.73 300.8 668.62 309.25 665.65 317.86 661.92 326.58 658.1 335.35 653.79 344.18 649.14 353.04 644.81 361.91 640.45 370.78 636.2 379.61 632.69 388.45 629.59 397.03 626.97 405.34 625.25 413.65 624.03 421.7 623.26 429.49 623.32 437.31 623.71 444.9 624.34 452.29 625.54 459.75 626.75 467.06 627.87 474.25 629.25 481.6 630.29 488.91 630.91 496.23 631.49 503.8 631.47 511.47 630.78 519.28 629.84 527.43 628.15 535.8 625.68 544.42 622.87 553.41 619.27 562.66 614.92 572.15 610.21 581.95 604.79 591.91 598.72 601.94 592.36 612.06 585.42 622.06 577.98 631.76 570.33 641.2 562.26 650.06 553.85 658.13 545.31 665.52 536.49 671.82 527.47 676.84 518.38 680.84 509.13 683.37 499.78 684.35 490.4 684.23 480.96 682.6 471.48 679.53 462 675.68 452.51 670.72 443.02 664.86 433.55 658.9 424.08 652.57 414.65 646.17 405.22 640.5 396.03 635.39 387.09 631.03 378.14 627.9 369.43 625.66 360.95 624.31 352.43 624.2 344.13 624.82 336.04 625.99 327.9 628.02 319.96 630.24 312.2 632.45 304.37 634.94 296.71 637.03 289.22 638.52 281.64 639.79 274.2 640.2 266.93 639.65 259.55 638.55 252.31 636.39 245.23 633.17 238.04 629.32 231 624.45 224.14 618.66 217.19 612.3 210.42 605.15 203.87 597.32 197.26 589.09 190.89 580.33 184.8 571.18 178.71 561.8 172.93 552.15 167.51 542.33 162.15 532.42 157.19 522.43 152.67 512.42 148.27 502.4 144.36 492.42 140.97 482.52 137.75 472.64 135.08 462.85 133 453.19 131.13 443.56 129.85 434.04 129.19 424.67 128.74 415.32 128.9 406.09 129.7 397.02 130.66 387.95 132.2 379.23 134.27 370.87 136.42 362.49 139.06 354.46 142.13 346.78 145.21 339.07 148.68 331.7 152.48 324.66 156.21 317.57 160.25 310.79 164.54 304.31 168.71 297.76 173.1 291.46 177.71 285.41 182.14 279.23 186.78 273.24 191.58 267.42 196.21 261.39 201.02 255.47 206.01 249.63 210.82 243.51 215.83 237.41 221.03 231.31 226.09 224.89 231.36 218.44 236.85 211.95 242.23 205.16 247.85 198.35 253.72 191.57 259.51 184.57 265.57 177.67 271.89 170.95 278.16 164.19 284.71 157.74 291.52 151.72 298.31 145.88 305.37 140.63 312.7 136.07 320.01 131.93 327.58 128.62 335.41 126.22 343.23 124.38 351.3 123.5 359.62 123.62 367.92 124.26 376.48 125.83 385.27 128.28" stroke-dasharray="11 4" transform="rotate(8.08, 400, 400)" opacity="0.66"></path><path d="M388.88 139.07C397.38 141.79 405.94 145.11 414.55 148.91 423.17 152.69 431.85 156.74 440.58 160.96 449.34 164.91 458.16 168.88 467.04 172.82 475.97 176.33 484.96 179.75 494 183.08 503.1 185.94 512.25 188.75 521.41 191.52 530.63 193.91 539.86 196.37 549.04 198.92 558.22 201.24 567.32 203.77 576.26 206.55 585.13 209.25 593.76 212.3 602.07 215.72 610.19 219.18 617.87 223.08 625.02 227.42 631.83 231.87 637.99 236.78 643.41 242.13 648.34 247.62 652.43 253.54 655.6 259.86 658.22 266.31 659.87 273.12 660.53 280.25 660.66 287.49 659.85 295 658.13 302.74 656.05 310.55 653.2 318.55 649.68 326.69 646.09 334.86 642.07 343.15 637.74 351.5 633.71 359.87 629.64 368.29 625.65 376.71 622.32 385.14 619.34 393.38 616.77 401.41 615.01 409.45 613.68 417.3 612.74 424.97 612.56 432.66 612.67 440.2 612.99 447.6 613.86 455.09 614.77 462.49 615.6 469.84 616.71 477.34 617.55 484.85 618.04 492.42 618.54 500.21 618.53 508.13 617.94 516.2 617.18 524.56 615.74 533.11 613.62 541.87 611.22 550.93 608.11 560.18 604.3 569.58 600.18 579.19 595.4 588.86 590 598.49 584.34 608.11 578.11 617.5 571.38 626.52 564.45 635.2 557.09 643.25 549.36 650.47 541.5 657.01 533.34 662.49 524.94 666.74 516.46 670.05 507.8 671.99 498.99 672.51 490.15 672.06 481.2 670.25 472.19 667.14 463.16 663.37 454.09 658.6 445 653.03 435.91 647.4 426.8 641.43 417.7 635.39 408.6 630 399.71 625.09 391.04 620.83 382.35 617.67 373.88 615.31 365.61 613.73 357.31 613.28 349.2 613.5 341.28 614.24 333.32 615.81 325.52 617.6 317.9 619.44 310.21 621.62 302.68 623.51 295.3 624.93 287.84 626.24 280.52 626.84 273.35 626.62 266.09 625.98 258.96 624.41 251.99 621.89 244.93 618.83 238.02 614.83 231.29 609.96 224.49 604.58 217.87 598.4 211.47 591.55 205.03 584.31 198.83 576.5 192.91 568.25 187.01 559.74 181.42 550.91 176.18 541.84 171.01 532.64 166.24 523.3 161.89 513.88 157.68 504.42 153.93 494.94 150.7 485.49 147.63 476.04 145.1 466.65 143.14 457.36 141.38 448.08 140.19 438.9 139.61 429.85 139.22 420.81 139.43 411.89 140.25 403.11 141.23 394.34 142.77 385.91 144.82 377.81 146.97 369.71 149.57 361.93 152.6 354.48 155.64 346.99 159.05 339.82 162.79 332.94 166.47 326.01 170.45 319.35 174.68 312.96 178.79 306.47 183.13 300.2 187.67 294.14 192.05 287.93 196.63 281.88 201.37 275.96 205.95 269.83 210.7 263.78 215.61 257.78 220.36 251.52 225.29 245.27 230.39 239.02 235.36 232.49 240.52 225.93 245.88 219.36 251.13 212.54 256.6 205.73 262.29 198.98 267.9 192.08 273.76 185.32 279.85 178.77 285.89 172.23 292.19 166.04 298.74 160.29 305.25 154.76 312.03 149.82 319.06 145.56 326.07 141.71 333.34 138.67 340.86 136.51 348.36 134.86 356.12 134.14 364.12 134.36 372.12 135.06 380.37 136.65 388.87 139.07" stroke-dasharray="4 7" transform="rotate(12.12, 400, 400)" opacity="0.47"></path><path d="M392.91 149.86C401.13 152.53 409.41 155.77 417.74 159.47 426.09 163.16 434.51 167.14 442.98 171.3 451.48 175.22 460.04 179.19 468.64 183.14 477.29 186.71 485.99 190.22 494.72 193.64 503.5 196.64 512.29 199.58 521.08 202.47 529.9 205 538.68 207.55 547.38 210.18 556.05 212.55 564.6 215.08 572.95 217.82 581.2 220.43 589.18 223.33 596.81 226.55 604.23 229.75 611.2 233.34 617.63 237.31 623.73 241.34 629.2 245.79 633.95 250.64 638.25 255.6 641.77 260.95 644.42 266.69 646.59 272.53 647.87 278.72 648.25 285.24 648.18 291.84 647.27 298.73 645.53 305.86 643.5 313.06 640.79 320.47 637.48 328.05 634.14 335.66 630.4 343.42 626.37 351.3 622.63 359.18 618.84 367.15 615.1 375.19 611.95 383.24 609.1 391.16 606.58 398.94 604.8 406.72 603.37 414.39 602.28 421.94 601.88 429.52 601.74 437.01 601.79 444.43 602.35 451.93 602.95 459.4 603.51 466.87 604.35 474.48 604.98 482.14 605.31 489.89 605.7 497.82 605.66 505.89 605.12 514.11 604.46 522.55 603.22 531.16 601.38 539.93 599.31 548.91 596.6 558.01 593.26 567.19 589.67 576.48 585.46 585.73 580.66 594.86 575.63 603.89 570.06 612.61 564 620.88 557.75 628.77 551.06 636 544.01 642.39 536.82 648.11 529.3 652.8 521.52 656.34 513.67 659.01 505.59 660.42 497.34 660.54 489.05 659.81 480.62 657.85 472.09 654.73 463.54 651.06 454.91 646.5 446.23 641.22 437.55 635.92 428.82 630.3 420.07 624.6 411.31 619.49 402.74 614.79 394.35 610.64 385.95 607.48 377.72 605.01 369.68 603.23 361.61 602.48 353.7 602.33 345.96 602.67 338.19 603.8 330.56 605.17 323.09 606.62 315.56 608.47 308.17 610.11 300.92 611.39 293.6 612.67 286.41 613.36 279.37 613.36 272.24 613.07 265.26 611.96 258.42 610.02 251.51 607.64 244.75 604.41 238.17 600.36 231.54 595.86 225.09 590.61 218.86 584.69 212.62 578.4 206.62 571.53 200.89 564.18 195.2 556.57 189.81 548.59 184.76 540.31 179.81 531.89 175.23 523.26 171.08 514.5 167.06 505.67 163.49 496.77 160.41 487.85 157.51 478.92 155.12 469.99 153.28 461.13 151.63 452.26 150.54 443.47 150.03 434.77 149.71 426.08 149.96 417.49 150.8 409.02 151.8 400.56 153.34 392.4 155.36 384.56 157.48 376.71 160.05 369.16 163.02 361.89 166.01 354.6 169.36 347.58 173.03 340.83 176.65 334.01 180.56 327.43 184.71 321.07 188.77 314.62 193.04 308.35 197.51 302.24 201.84 295.99 206.35 289.86 211.03 283.82 215.55 277.59 220.24 271.42 225.08 265.28 229.77 258.91 234.63 252.54 239.65 246.17 244.54 239.57 249.6 232.95 254.85 226.35 259.98 219.56 265.32 212.8 270.86 206.15 276.32 199.39 281.99 192.82 287.9 186.48 293.73 180.21 299.81 174.31 306.13 168.86 312.4 163.65 318.92 159.03 325.68 155.08 332.42 151.53 339.4 148.76 346.64 146.82 353.85 145.38 361.32 144.8 369.03 145.11 376.73 145.88 384.69 147.47 392.9 149.86" stroke-dasharray="7 10" transform="rotate(16.16, 400, 400)" opacity="0.53"></path><path d="M397.22 160.65C405.14 163.26 413.13 166.41 421.18 170 429.24 173.61 437.37 177.5 445.55 181.58 453.75 185.46 462.01 189.41 470.3 193.37 478.62 196.98 486.98 200.55 495.35 204.06 503.74 207.18 512.13 210.24 520.48 213.26 528.84 215.92 537.12 218.59 545.3 221.31 553.42 223.77 561.38 226.34 569.12 229.08 576.73 231.65 584.04 234.47 590.98 237.55 597.71 240.57 603.98 243.92 609.73 247.6 615.15 251.3 619.96 255.37 624.09 259.8 629.31 266.73 635.25 282.51 635.88 291.29 635.65 297.31 634.66 303.62 632.94 310.2 630.99 316.82 628.42 323.68 625.32 330.74 622.22 337.82 618.76 345.08 615.03 352.49 611.57 359.92 608.05 367.47 604.55 375.15 601.58 382.83 598.85 390.44 596.4 397.98 594.6 405.52 593.1 413.01 591.89 420.44 591.29 427.9 590.92 435.33 590.71 442.74 590.99 450.22 591.31 457.72 591.59 465.26 592.17 472.92 592.58 480.65 592.73 488.48 592.99 496.47 592.88 504.58 592.34 512.81 591.74 521.22 590.64 529.75 589 538.39 587.2 547.16 584.83 555.99 581.88 564.82 578.74 573.67 575.02 582.41 570.76 590.94 566.3 599.31 561.33 607.3 555.88 614.79 550.27 621.88 544.22 628.29 537.8 633.86 531.25 638.8 524.37 642.76 517.2 645.63 509.96 647.72 502.47 648.67 494.78 648.44 487.05 647.47 479.14 645.41 471.11 642.31 463.06 638.76 454.89 634.41 446.64 629.43 438.38 624.45 430.05 619.18 421.67 613.81 413.28 608.97 405.03 604.48 396.94 600.46 388.84 597.32 380.89 594.77 373.08 592.82 365.26 591.8 357.58 591.31 350.04 591.28 342.47 591.99 335.03 592.94 327.72 594.01 320.37 595.5 313.14 596.86 306.05 597.95 298.9 599.12 291.86 599.82 284.97 599.95 278.01 599.89 271.19 599.14 264.5 597.66 257.78 595.84 251.2 593.25 244.79 589.92 238.35 586.21 232.11 581.8 226.07 576.73 220.05 571.34 214.26 565.36 208.74 558.89 203.27 552.17 198.11 545.05 193.28 537.59 188.54 529.97 184.18 522.1 180.23 514.04 176.41 505.91 173.03 497.64 170.12 489.31 167.38 480.94 165.14 472.54 163.43 464.15 161.9 455.75 160.9 447.39 160.46 439.08 160.21 430.78 160.5 422.54 161.36 414.4 162.37 406.25 163.89 398.38 165.88 390.79 167.97 383.18 170.49 375.83 173.39 368.74 176.32 361.62 179.61 354.73 183.19 348.07 186.75 341.35 190.58 334.82 194.65 328.48 198.63 322.04 202.84 315.74 207.23 309.58 211.5 303.28 215.94 297.07 220.55 290.93 225.02 284.62 229.64 278.34 234.42 272.1 239.05 265.65 243.84 259.21 248.78 252.78 253.59 246.15 258.57 239.54 263.71 232.97 268.74 226.25 273.96 219.61 279.37 213.1 284.69 206.55 290.21 200.2 295.94 194.13 301.6 188.15 307.49 182.56 313.59 177.43 319.65 172.56 325.94 168.27 332.46 164.64 338.94 161.39 345.67 158.89 352.63 157.17 359.58 155.92 366.77 155.49 374.2 155.89 381.62 156.71 389.29 158.3 397.21 160.65" stroke-dasharray="9 10" transform="rotate(20.200000000000003, 400, 400)" opacity="0.07"></path><path d="M401.63 171.44C409.25 173.98 416.94 177.04 424.69 180.52 432.44 184.03 440.26 187.82 448.11 191.81 455.98 195.63 463.9 199.54 471.83 203.48 479.79 207.12 487.76 210.74 495.71 214.32 503.68 217.53 511.62 220.71 519.49 223.85 527.34 226.64 535.09 229.44 542.7 232.27 550.25 234.82 557.6 237.47 564.69 240.24 571.66 242.84 578.31 245.62 584.57 248.62 590.63 251.52 596.23 254.7 601.31 258.17 608.19 263.51 618.31 275.84 621.35 282.86 623.12 290.27 622.57 306.72 620.37 315.7 618.51 321.8 616.1 328.15 613.22 334.72 610.35 341.31 607.16 348.11 603.71 355.1 600.53 362.09 597.26 369.26 593.99 376.58 591.2 383.91 588.6 391.23 586.22 398.53 584.42 405.83 582.87 413.13 581.55 420.42 580.79 427.74 580.21 435.08 579.78 442.43 579.79 449.86 579.84 457.33 579.87 464.86 580.19 472.49 580.37 480.21 580.35 488.01 580.45 495.94 580.23 503.98 579.66 512.11 579.08 520.36 578.05 528.69 576.56 537.06 574.97 545.51 572.86 553.94 570.24 562.3 567.47 570.62 564.18 578.76 560.39 586.62 556.43 594.27 551.99 601.51 547.1 608.21 542.07 614.5 536.62 620.1 530.79 624.89 524.85 629.09 518.58 632.37 512 634.63 505.35 636.21 498.44 636.75 491.3 636.22 484.12 635.07 476.75 632.94 469.21 629.9 461.66 626.47 453.97 622.35 446.16 617.66 438.35 612.99 430.43 608.06 422.43 603.02 414.43 598.46 406.53 594.18 398.76 590.29 390.98 587.18 383.31 584.57 375.77 582.48 368.22 581.23 360.78 580.45 353.46 580.07 346.12 580.38 338.88 580.94 331.77 581.64 324.63 582.76 317.59 583.81 310.67 584.67 303.71 585.68 296.86 586.3 290.14 586.48 283.38 586.55 276.75 586.04 270.26 584.91 263.73 583.52 257.36 581.47 251.16 578.75 244.94 575.72 238.92 572.04 233.11 567.75 227.32 563.17 221.77 558.02 216.48 552.39 211.26 546.52 206.33 540.23 201.73 533.57 197.23 526.76 193.09 519.66 189.35 512.33 185.74 504.91 182.56 497.32 179.83 489.6 177.26 481.85 175.17 474.01 173.58 466.14 172.17 458.25 171.27 450.35 170.9 442.47 170.71 434.58 171.04 426.72 171.91 418.92 172.92 411.1 174.43 403.52 176.38 396.17 178.43 388.81 180.89 381.67 183.72 374.74 186.59 367.78 189.79 361.02 193.29 354.44 196.76 347.8 200.5 341.32 204.48 334.98 208.39 328.56 212.5 322.25 216.81 316.04 221.01 309.7 225.38 303.43 229.91 297.22 234.31 290.86 238.87 284.52 243.57 278.21 248.14 271.74 252.86 265.28 257.72 258.85 262.46 252.26 267.35 245.71 272.4 239.23 277.34 232.66 282.46 226.19 287.74 219.88 292.93 213.57 298.32 207.5 303.89 201.72 309.39 196.08 315.1 190.82 321.01 186.04 326.88 181.52 332.95 177.57 339.25 174.25 345.51 171.3 351.99 169.06 358.7 167.57 365.39 166.5 372.31 166.2 379.47 166.68 386.61 167.55 394 169.14 401.62 171.44" stroke-dasharray="10 6" transform="rotate(24.24, 400, 400)" opacity="0.61"></path><path d="M405.98 182.23C413.29 184.7 420.67 187.66 428.09 191.02 435.51 194.42 442.99 198.1 450.49 201.98 458 205.73 465.54 209.58 473.07 213.49 480.62 217.13 488.17 220.78 495.67 224.4 503.17 227.71 510.62 230.98 517.97 234.22 525.29 237.14 532.48 240.07 539.5 243.01 546.45 245.68 553.18 248.42 559.64 251.26 565.96 253.9 571.95 256.69 577.56 259.66 585.45 264.06 598.4 273.96 603.25 279.57 607.03 285.46 610.88 298.78 610.93 306.21 610.49 311.27 609.45 316.63 607.83 322.25 606.07 327.89 603.83 333.79 601.16 339.93 598.52 346.07 595.59 352.45 592.43 359.03 589.5 365.62 586.48 372.42 583.44 379.41 580.82 386.4 578.35 393.43 576.05 400.47 574.26 407.53 572.67 414.63 571.27 421.75 570.37 428.9 569.61 436.1 568.97 443.35 568.75 450.65 568.55 458.02 568.34 465.46 568.41 472.97 568.37 480.57 568.16 488.25 568.09 496.02 567.76 503.86 567.12 511.76 566.51 519.74 565.52 527.74 564.13 535.74 562.67 543.74 560.77 551.68 558.42 559.48 555.95 567.19 553.01 574.66 549.62 581.81 546.1 588.72 542.14 595.18 537.75 601.09 533.24 606.59 528.33 611.42 523.05 615.48 517.67 618.99 511.96 621.64 505.95 623.36 499.87 624.49 493.51 624.67 486.92 623.9 480.28 622.6 473.43 620.44 466.4 617.48 459.35 614.2 452.14 610.31 444.78 605.91 437.42 601.56 429.93 596.95 422.33 592.23 414.73 587.94 407.21 583.87 399.77 580.13 392.33 577.07 384.98 574.43 377.72 572.23 370.46 570.77 363.28 569.73 356.21 569.04 349.12 568.99 342.13 569.17 335.24 569.5 328.32 570.26 321.51 570.98 314.8 571.59 308.06 572.38 301.43 572.88 294.92 573.02 288.38 573.13 281.97 572.76 275.69 571.87 269.41 570.81 263.26 569.17 257.3 566.94 251.33 564.48 245.55 561.42 239.99 557.81 234.46 553.95 229.16 549.56 224.13 544.69 219.16 539.61 214.49 534.11 210.13 528.23 205.88 522.2 201.98 515.85 198.46 509.25 195.07 502.55 192.09 495.63 189.54 488.56 187.15 481.44 185.22 474.19 183.76 466.86 182.47 459.51 181.66 452.1 181.36 444.66 181.22 437.22 181.59 429.76 182.46 422.31 183.47 414.85 184.96 407.57 186.86 400.48 188.86 393.37 191.26 386.44 194.01 379.68 196.79 372.89 199.91 366.25 203.31 359.76 206.69 353.21 210.33 346.79 214.21 340.47 218.02 334.08 222.05 327.78 226.26 321.55 230.37 315.21 234.66 308.92 239.1 302.68 243.43 296.31 247.91 289.97 252.53 283.65 257.03 277.21 261.67 270.79 266.45 264.42 271.11 257.94 275.93 251.52 280.88 245.19 285.73 238.82 290.74 232.58 295.91 226.52 300.99 220.51 306.24 214.75 311.67 209.31 317.03 204.01 322.57 199.12 328.3 194.69 333.99 190.53 339.87 186.92 345.95 183.92 351.99 181.27 358.25 179.28 364.71 178 371.15 177.12 377.81 176.94 384.69 177.5 391.56 178.4 398.65 179.99 405.97 182.23" stroke-dasharray="6 7" transform="rotate(28.28, 400, 400)" opacity="0.70"></path><path d="M410.1 193.02C417.09 195.41 424.14 198.26 431.21 201.5 438.29 204.78 445.4 208.34 452.51 212.11 459.64 215.76 466.77 219.54 473.88 223.39 480.99 227.02 488.07 230.67 495.09 234.32 502.1 237.68 509.03 241.03 515.84 244.36 522.6 247.4 529.22 250.43 535.64 253.48 541.99 256.28 548.09 259.12 553.92 262.04 562.29 266.18 576.93 274.94 582.99 279.69 588.2 284.54 595.51 295.43 597.52 301.52 598.54 307.88 597.38 321.97 595.32 329.69 593.68 334.93 591.61 340.43 589.15 346.18 586.74 351.92 584.06 357.91 581.17 364.13 578.49 370.34 575.71 376.79 572.89 383.45 570.44 390.12 568.1 396.85 565.89 403.64 564.12 410.44 562.51 417.3 561.05 424.21 560.02 431.16 559.11 438.17 558.3 445.24 557.86 452.35 557.44 459.54 557.01 466.8 556.85 474.11 556.59 481.5 556.2 488.94 555.95 496.43 555.49 503.98 554.77 511.54 554.1 519.13 553.11 526.7 551.77 534.22 550.4 541.7 548.65 549.06 546.5 556.23 544.27 563.27 541.63 570.03 538.58 576.44 535.42 582.59 531.86 588.27 527.91 593.41 521.65 600.21 507.21 609.55 499.13 611.84 493.58 612.56 487.76 612.45 481.69 611.49 475.58 610.09 469.24 607.93 462.7 605.06 456.15 601.95 449.41 598.3 442.51 594.19 435.61 590.14 428.56 585.85 421.37 581.44 414.19 577.41 407.05 573.56 399.97 569.97 392.89 566.98 385.87 564.33 378.92 562.05 371.98 560.43 365.1 559.15 358.3 558.2 351.49 557.82 344.76 557.65 338.13 557.63 331.47 558.03 324.9 558.43 318.44 558.75 311.96 559.29 305.57 559.61 299.3 559.66 293.02 559.74 286.86 559.42 280.84 558.68 274.81 557.84 268.93 556.5 263.23 554.65 257.54 552.64 252.03 550.09 246.74 547.05 241.48 543.8 236.46 540.07 231.7 535.88 227.01 531.52 222.6 526.73 218.51 521.57 214.51 516.28 210.86 510.66 207.57 504.75 204.4 498.75 201.63 492.51 199.27 486.07 197.06 479.59 195.27 472.93 193.94 466.16 192.77 459.36 192.06 452.46 191.83 445.48 191.74 438.5 192.14 431.46 193.01 424.37 194.02 417.29 195.47 410.33 197.33 403.5 199.27 396.67 201.59 389.96 204.25 383.38 206.95 376.78 209.96 370.28 213.25 363.9 216.53 357.47 220.07 351.13 223.82 344.87 227.54 338.54 231.45 332.28 235.55 326.07 239.57 319.77 243.76 313.52 248.1 307.3 252.35 300.98 256.74 294.7 261.26 288.44 265.68 282.1 270.24 275.8 274.92 269.55 279.51 263.24 284.23 257.02 289.08 250.91 293.84 244.79 298.75 238.83 303.8 233.08 308.77 227.39 313.9 221.98 319.18 216.9 324.4 211.98 329.79 207.47 335.34 203.41 340.85 199.61 346.54 196.34 352.41 193.65 358.25 191.3 364.28 189.56 370.5 188.49 376.7 187.77 383.1 187.71 389.7 188.33 396.29 189.27 403.09 190.84 410.09 193.02" stroke-dasharray="3 5" transform="rotate(32.32, 400, 400)" opacity="0.21"></path><path d="M413.83 203.81C420.49 206.11 427.19 208.86 433.89 211.96 440.6 215.11 447.32 218.54 454.03 222.18 460.74 225.73 467.44 229.41 474.1 233.19 480.75 236.77 487.35 240.41 493.86 244.05 500.36 247.45 506.75 250.85 513 254.24 519.2 257.38 525.24 260.52 531.07 263.66 536.81 266.57 542.31 269.52 547.53 272.53 554.99 276.79 567.88 285.65 573.14 290.36 577.63 295.11 583.78 305.58 585.37 311.36 586.12 317.35 584.81 330.56 582.86 337.8 580.39 345.28 573.79 361.47 569.94 370.16 567.49 376.03 564.94 382.14 562.34 388.48 560.06 394.83 557.84 401.26 555.73 407.77 554 414.28 552.38 420.88 550.87 427.54 549.75 434.23 548.72 440.99 547.75 447.82 547.12 454.68 546.51 461.61 545.88 468.59 545.5 475.61 545.04 482.69 544.47 489.79 544.05 496.92 543.44 504.06 542.62 511.18 541.87 518.3 540.85 525.35 539.53 532.31 538.21 539.19 536.56 545.91 534.56 552.4 532.52 558.74 530.11 564.77 527.34 570.43 522.88 578.29 512.06 590.89 505.74 595.34 498.99 598.45 483.92 600.28 475.68 599 470.07 597.54 464.23 595.41 458.18 592.66 452.11 589.72 445.84 586.31 439.41 582.49 432.96 578.73 426.35 574.75 419.59 570.65 412.84 566.88 406.1 563.25 399.39 559.82 392.69 556.91 386.03 554.27 379.42 551.94 372.81 550.19 366.25 548.72 359.76 547.53 353.26 546.85 346.83 546.37 340.47 546.03 334.11 546.08 327.83 546.15 321.64 546.19 315.44 546.46 309.33 546.57 303.34 546.47 294.41 546.28 277.2 544.14 268.98 542.01 260.99 539.26 246.06 531.28 239.22 526.08 234.82 522.34 230.69 518.2 226.87 513.69 223.14 509.06 219.73 504.11 216.68 498.85 213.75 493.52 211.18 487.92 209.01 482.1 206.98 476.24 205.35 470.17 204.15 463.95 203.1 457.7 202.48 451.31 202.3 444.81 202.28 438.3 202.69 431.69 203.56 424.99 204.56 418.29 205.97 411.67 207.77 405.14 209.65 398.6 211.88 392.14 214.45 385.76 217.05 379.37 219.95 373.05 223.12 366.81 226.29 360.53 229.7 354.31 233.33 348.14 236.93 341.93 240.72 335.76 244.7 329.63 248.61 323.43 252.68 317.27 256.91 311.14 261.05 304.94 265.34 298.78 269.75 292.66 274.08 286.48 278.54 280.36 283.12 274.31 287.61 268.24 292.23 262.27 296.98 256.43 301.64 250.62 306.44 244.99 311.36 239.59 316.22 234.28 321.21 229.24 326.35 224.55 331.43 220.02 336.66 215.89 342.04 212.21 347.38 208.78 352.88 205.85 358.54 203.47 364.17 201.39 369.98 199.9 375.95 199.02 381.91 198.46 388.04 198.51 394.35 199.19 400.66 200.15 407.15 201.69 413.81 203.81" stroke-dasharray="7 8" transform="rotate(36.36, 400, 400)" opacity="0.77"></path><path d="M417.02 214.6C423.35 216.81 429.68 219.44 436 222.4 442.32 225.42 448.63 228.7 454.91 232.19 467.48 238.95 479.88 246.18 491.9 253.6 503.81 260.2 515.19 266.85 525.76 273.51 536 279.32 545.18 285.33 553.01 291.61 560.23 297.33 565.86 303.62 569.66 310.55 572.74 317.22 573.95 324.74 573.27 333.13 572.12 341.43 569.39 350.69 565.3 360.88 563.33 365.96 561.12 371.28 558.73 376.84 556.51 382.39 554.19 388.18 551.78 394.2 549.67 400.22 547.59 406.34 545.57 412.54 543.89 418.75 542.28 425.05 540.75 431.41 538.69 444.19 536.8 457.28 534.95 470.53 534.02 483.83 532.68 497.24 530.73 510.47 529.11 523.55 526.47 536.17 522.71 547.9 518.85 558.96 513.69 568.6 507.25 576.31 500.59 582.72 492.65 586.75 483.58 588.09 474.35 587.97 464.07 585.31 452.92 580.27 447.32 577.52 441.52 574.34 435.54 570.81 429.55 567.34 423.38 563.66 417.06 559.86 410.74 556.35 404.41 552.93 398.1 549.67 391.79 546.86 385.51 544.26 379.25 541.91 366.76 538.7 354.4 536.37 342.33 534.7 330.25 534.5 318.45 534.25 307.07 533.54 295.73 533.28 284.84 531.9 274.6 529.17 264.5 526.19 255.13 521.61 246.71 515.47 238.59 508.93 231.55 500.92 225.81 491.67 220.53 482.15 216.66 471.6 214.38 460.24 213.44 454.54 212.91 448.65 212.8 442.62 212.82 436.59 213.25 430.41 214.12 424.12 215.1 417.82 216.46 411.56 218.19 405.34 220 399.12 222.15 392.93 224.6 386.8 229.63 374.5 235.74 362.32 242.73 350.34 249.63 338.21 257.28 326.16 265.51 314.27 273.49 302.22 282.03 290.32 291.01 278.78 299.71 267.24 308.9 256.24 318.53 246.11 327.93 236.41 337.86 227.95 348.3 221.11 358.58 215.22 369.47 211.29 380.93 209.6 386.63 209.18 392.5 209.34 398.51 210.06 404.52 211.04 410.69 212.55 417.01 214.6" stroke-dasharray="5 5" transform="rotate(40.400000000000006, 400, 400)" opacity="0.44"></path><path d="M419.57 225.39C431.49 229.74 443.37 235.47 455.05 242.16 466.72 248.67 478.15 255.7 489.13 262.97 499.99 269.56 510.26 276.27 519.7 283.01 528.83 289 536.92 295.16 543.72 301.55 550 307.4 554.81 313.71 557.97 320.55 560.55 327.1 561.47 334.38 560.72 342.42 559.63 350.33 557.15 359.12 553.45 368.76 550.01 378.36 545.86 388.86 541.23 400.26 537.59 411.65 534.02 423.44 530.67 435.48 528.46 447.55 526.34 459.88 524.22 472.29 522.93 484.69 521.28 497.08 519.11 509.17 517.3 521.04 514.63 532.33 510.99 542.64 507.35 552.28 502.57 560.5 496.65 566.9 490.59 572.14 483.38 575.22 475.11 575.91 466.7 575.41 457.31 572.69 447.05 567.91 436.74 562.73 425.64 556.29 413.87 549.07 402.1 542.86 390.26 537.04 378.52 531.93 366.79 528.52 355.15 525.81 343.76 523.66 332.39 522.85 321.27 522.04 310.56 520.92 299.91 520.33 289.7 518.85 280.12 516.28 270.7 513.63 261.99 509.61 254.19 504.23 246.7 498.57 240.22 491.56 234.97 483.35 230.15 474.94 226.65 465.47 224.63 455.14 223.11 444.73 223.08 433.58 224.67 421.82 226.68 410.05 230.1 398.26 234.72 386.55 239.51 374.82 245.35 363.12 252.02 351.54 258.64 339.87 265.99 328.26 273.91 316.81 281.63 305.29 289.89 293.97 298.58 283.05 307.04 272.24 315.96 262.02 325.28 252.69 334.4 243.84 344.01 236.21 354.05 230.13 363.96 224.93 374.4 221.56 385.33 220.23 396.21 219.92 407.63 221.64 419.56 225.39" stroke-dasharray="6 8" transform="rotate(44.44, 400, 400)" opacity="0.29"></path><path d="M421.36 236.18C432.53 240.32 443.58 245.74 454.36 252.08 465.13 258.31 475.58 265.09 485.52 272.16 495.35 278.68 504.56 285.36 512.92 292.12 521.01 298.24 528.09 304.52 533.96 310.99 539.4 316.96 543.5 323.31 546.11 330.09 548.27 336.58 548.97 343.68 548.2 351.43 547.2 359.04 544.97 367.42 541.67 376.56 538.62 385.65 534.89 395.57 530.68 406.3 527.31 417.03 523.92 428.11 520.63 439.37 518.32 450.66 516.03 462.12 513.69 473.57 512.09 484.97 510.17 496.24 507.8 507.11 505.79 517.71 503.06 527.64 499.5 536.56 496.01 544.83 491.53 551.74 486.05 556.93 480.5 561.14 473.91 563.4 466.35 563.56 458.7 562.78 450.12 560.06 440.71 555.56 431.26 550.8 421.04 544.91 410.15 538.28 399.26 532.52 388.26 527.01 377.3 522.02 366.37 518.46 355.51 515.45 344.85 512.9 334.24 511.54 323.86 510.22 313.86 508.68 303.95 507.71 294.47 506.05 285.59 503.52 276.88 501.03 268.86 497.4 261.7 492.59 254.83 487.61 248.93 481.43 244.17 474.12 239.81 466.67 236.68 458.18 234.91 448.81 233.59 439.37 233.66 429.14 235.22 418.21 237.17 407.29 240.42 396.22 244.8 385.15 249.35 374.07 254.88 362.95 261.21 351.89 267.52 340.8 274.53 329.76 282.1 318.9 289.52 308.03 297.47 297.41 305.82 287.23 313.99 277.23 322.59 267.86 331.56 259.39 340.37 251.41 349.61 244.61 359.22 239.28 368.74 234.75 378.7 231.9 389.07 230.92 399.4 230.83 410.18 232.58 421.36 236.18" stroke-dasharray="6 3" transform="rotate(48.48, 400, 400)" opacity="0.88"></path><path d="M422.32 246.97C432.72 250.88 442.92 255.99 452.8 261.96 462.65 267.88 472.13 274.36 481.07 281.17 489.9 287.56 498.08 294.15 505.44 300.86 512.56 307.03 518.73 313.37 523.77 319.88 528.46 325.94 531.94 332.31 534.11 339.04 535.92 345.49 536.46 352.44 535.72 359.94 534.83 367.29 532.87 375.3 529.94 383.96 527.26 392.58 523.94 401.92 520.13 411.96 517.03 422.01 513.82 432.32 510.64 442.75 508.27 453.18 505.85 463.7 503.35 474.1 501.49 484.43 499.34 494.52 496.8 504.12 494.61 513.44 491.8 522.04 488.3 529.62 484.9 536.61 480.66 542.31 475.56 546.43 470.42 549.73 464.37 551.32 457.46 551.07 450.48 550.08 442.65 547.43 434.06 543.25 425.42 538.9 416.05 533.54 406.03 527.49 396.02 522.18 385.87 516.99 375.74 512.16 365.64 508.53 355.58 505.3 345.71 502.42 335.9 500.6 326.3 498.8 317.06 496.86 307.92 495.5 299.2 493.6 291.05 491 283.08 488.55 275.76 485.16 269.26 480.77 263.02 476.3 257.7 470.78 253.43 464.24 249.52 457.59 246.74 449.98 245.22 441.49 244.1 432.95 244.25 423.6 245.77 413.53 247.64 403.46 250.72 393.17 254.84 382.8 259.12 372.44 264.33 361.99 270.3 351.59 276.27 341.19 282.92 330.84 290.09 320.69 297.17 310.59 304.75 300.77 312.72 291.43 320.55 282.31 328.79 273.84 337.36 266.26 345.81 259.17 354.63 253.19 363.78 248.58 372.85 244.69 382.3 242.33 392.07 241.67 401.82 241.77 411.93 243.53 422.32 246.97" stroke-dasharray="11 7" transform="rotate(52.52, 400, 400)" opacity="0.09"></path><path d="M422.43 257.76C432.04 261.43 441.38 266.2 450.35 271.79 459.3 277.36 467.83 283.5 475.8 290.01 483.67 296.19 490.89 302.62 497.32 309.2 503.56 315.34 508.89 321.67 513.21 328.14 517.25 334.24 520.21 340.6 522.01 347.25 523.56 353.65 523.99 360.46 523.3 367.7 522.54 374.81 520.83 382.47 518.27 390.66 515.93 398.82 513 407.57 509.58 416.92 506.74 426.26 503.74 435.77 500.68 445.31 498.3 454.83 495.81 464.34 493.2 473.65 491.15 482.87 488.81 491.76 486.13 500.1 483.79 508.17 480.91 515.49 477.45 521.82 472.09 529.94 457.72 538.5 448.6 538.46 442.23 537.35 435.09 534.81 427.25 530.96 419.38 527.03 410.84 522.19 401.69 516.7 392.54 511.84 383.25 506.98 373.97 502.35 364.71 498.72 355.49 495.34 346.44 492.23 337.45 490.01 328.67 487.82 320.23 485.52 311.9 483.77 303.96 481.6 296.56 478.89 289.34 476.38 282.73 473.11 276.89 469.01 271.29 464.91 266.53 459.89 262.74 453.99 259.28 448.02 256.84 441.16 255.56 433.48 254.62 425.77 254.85 417.26 256.32 408.04 258.11 398.82 261 389.34 264.84 379.75 268.85 370.17 273.72 360.49 279.29 350.85 284.9 341.24 291.14 331.69 297.89 322.36 304.58 313.12 311.74 304.19 319.28 295.76 326.72 287.57 334.54 280.02 342.66 273.35 350.69 267.13 359.06 261.96 367.69 258.04 376.27 254.76 385.17 252.86 394.31 252.48 403.43 252.74 412.83 254.5 422.43 257.76" stroke-dasharray="9 4" transform="rotate(56.56, 400, 400)" opacity="0.42"></path><path d="M421.68 268.55C430.47 271.97 438.95 276.39 447.03 281.58 455.08 286.78 462.69 292.54 469.74 298.68 476.71 304.59 483.04 310.78 488.63 317.15 494.05 323.18 498.66 329.4 502.34 335.77 505.82 341.83 508.34 348.12 509.85 354.63 511.19 360.93 511.55 367.57 510.96 374.54 510.33 381.41 508.87 388.7 506.66 396.41 504.65 404.09 502.08 412.25 499.02 420.87 496.45 429.48 493.67 438.15 490.76 446.76 488.4 455.35 485.89 463.83 483.23 472.03 481.04 480.13 478.58 487.84 475.81 494.97 473.34 501.85 470.41 507.98 467 513.17 461.78 519.77 448.29 526.21 439.91 525.75 434.08 524.59 427.59 522.21 420.47 518.71 413.32 515.18 405.57 510.86 397.27 505.91 388.98 501.48 380.55 496.99 372.13 492.6 363.73 489.01 355.37 485.58 347.17 482.31 339.02 479.79 331.08 477.27 323.46 474.67 315.94 472.56 308.8 470.14 302.18 467.29 295.71 464.67 289.81 461.44 284.62 457.53 279.65 453.68 275.45 449.06 272.13 443.67 269.1 438.26 267 432.07 265.93 425.12 265.17 418.15 265.46 410.45 266.88 402.07 268.56 393.69 271.25 385.05 274.81 376.3 278.53 367.56 283.03 358.72 288.2 349.93 293.41 341.18 299.21 332.52 305.5 324.09 311.76 315.79 318.47 307.8 325.52 300.32 332.52 293.09 339.87 286.49 347.49 280.71 355.04 275.34 362.89 270.94 370.97 267.69 379 264.97 387.29 263.48 395.76 263.35 404.23 263.75 412.89 265.48 421.68 268.55" stroke-dasharray="5 11" transform="rotate(60.599999999999994, 400, 400)" opacity="0.50"></path><path d="M420.09 279.34C428.05 282.5 435.68 286.56 442.89 291.32 450.07 296.12 456.8 301.47 462.99 307.2 469.11 312.77 474.62 318.64 479.45 324.71 484.15 330.54 488.11 336.57 491.25 342.73 494.24 348.66 496.4 354.8 497.69 361.11 498.86 367.25 499.19 373.66 498.7 380.32 498.21 386.89 497 393.79 495.1 401 493.4 408.18 491.17 415.72 488.47 423.58 486.16 431.44 483.59 439.26 480.86 446.93 478.58 454.58 476.09 462.02 473.44 469.14 471.17 476.15 468.64 482.73 465.83 488.72 461.81 497.02 451.91 509 445.82 512.2 439.24 513.72 423.26 510.74 413.87 506.5 407.42 503.38 400.43 499.54 392.97 495.12 385.5 491.13 377.93 487 370.37 482.88 362.83 479.41 355.33 475.99 347.99 472.65 340.7 469.93 333.61 467.17 326.83 464.34 320.14 461.95 313.8 459.29 307.94 456.31 299.63 451.95 286.3 440.72 281.61 433.61 278.99 428.66 277.2 423.03 276.35 416.76 275.74 410.47 276.08 403.53 277.43 395.98 279.01 388.43 281.49 380.65 284.76 372.76 288.16 364.9 292.29 356.96 297.02 349.08 301.81 341.26 307.15 333.54 312.94 326.08 318.72 318.74 324.93 311.74 331.46 305.23 337.96 298.96 344.78 293.28 351.84 288.38 358.87 283.83 366.15 280.16 373.61 277.51 381.05 275.31 388.69 274.2 396.46 274.28 404.23 274.79 412.13 276.47 420.09 279.34" stroke-dasharray="4 8" transform="rotate(64.64, 400, 400)" opacity="0.50"></path><path d="M417.73 290.13C424.86 293.02 431.63 296.71 438 301.03 444.34 305.41 450.24 310.3 455.62 315.57 460.95 320.74 465.72 326.23 469.86 331.92 473.91 337.45 477.31 343.18 479.99 349.05 482.57 354.75 484.43 360.63 485.54 366.66 486.59 372.55 486.92 378.66 486.54 384.94 486.18 391.15 485.2 397.6 483.62 404.27 482.19 410.91 480.28 417.8 477.92 424.89 475.86 431.98 473.53 438.93 471 445.66 468.81 452.37 466.41 458.82 463.82 464.89 460.26 473.64 452.17 488.17 447.46 493.53 442.54 497.69 430.66 501.06 423.6 500.17 418.75 499.07 413.41 497.11 407.62 494.34 401.83 491.6 395.58 488.24 388.93 484.33 382.28 480.77 375.55 477.02 368.84 473.21 362.16 469.9 355.52 466.57 349.05 463.25 342.62 460.41 336.37 457.52 330.42 454.54 324.55 451.93 319.01 449.11 313.91 446.03 306.68 441.55 295.18 430.68 291.18 424.07 288.21 416.95 286.52 399.97 287.98 390.13 289.44 383.39 291.71 376.47 294.67 369.48 297.75 362.52 301.49 355.51 305.77 348.58 310.11 341.71 314.97 334.97 320.22 328.5 325.5 322.14 331.16 316.13 337.12 310.58 343.07 305.25 349.31 300.47 355.77 296.4 362.21 292.62 368.86 289.63 375.67 287.54 382.46 285.81 389.42 285.03 396.45 285.27 403.49 285.87 410.61 287.48 417.73 290.13" stroke-dasharray="9 10" transform="rotate(68.68, 400, 400)" opacity="0.75"></path><path d="M414.69 300.91C427.27 306.29 438.44 314.27 447.76 323.81 456.91 333.17 464.01 343.69 468.65 354.75 473.05 365.34 475.03 376.65 474.49 388.36 474.09 399.87 471.68 412.11 467.36 424.71 464.02 437.31 459.55 449.06 454.35 459.32 450.11 469.31 444.78 477.35 438.42 482.7 432.49 487.34 425.06 488.98 416.22 487.34 407.44 485.29 397.04 480.56 385.32 473.54 373.59 467.58 361.73 460.88 350.44 454.08 339.3 448.77 328.95 442.95 320.12 436.52 311.7 430.86 305.05 423.83 300.86 415.32 297.29 406.95 296.35 396.74 298.53 384.86 301.34 372.99 306.9 360.64 314.46 348.66 322.26 336.9 331.85 325.85 342.53 316.46 353.24 307.76 365 301.25 377.2 297.77 389.41 295.41 402.11 296.34 414.69 300.91" stroke-dasharray="2 9" transform="rotate(72.72, 400, 400)" opacity="0.07"></path><path d="M411.08 311.7C422 316.47 431.59 323.5 439.52 331.94 447.33 340.33 453.36 349.84 457.3 359.87 461.1 369.63 462.89 380.01 462.56 390.62 462.38 401.11 460.46 412.06 456.81 423.06 453.89 434.06 449.84 444.04 445.04 452.5 440.94 460.77 435.85 467.21 429.88 471.32 424.26 474.95 417.42 476.09 409.48 474.53 401.61 472.77 392.45 468.76 382.27 462.76 372.09 457.54 361.9 451.48 352.28 445.14 342.78 439.9 334.03 434.11 326.64 427.81 319.56 422.14 314.05 415.4 310.65 407.58 307.73 399.9 307.07 390.82 309.08 380.5 311.6 370.17 316.47 359.64 323.09 349.56 329.93 339.67 338.35 330.55 347.75 322.94 357.2 315.89 367.57 310.76 378.3 308.21 389.05 306.51 400.17 307.57 411.08 311.7" stroke-dasharray="2 6" transform="rotate(76.76, 400, 400)" opacity="0.69"></path><path d="M407.05 322.49C416.32 326.62 424.4 332.68 431.04 339.98 437.61 347.29 442.67 355.65 446.01 364.49 449.28 373.2 450.89 382.43 450.75 391.8 450.77 401.1 449.28 410.66 446.26 420.05 443.77 429.43 440.18 437.73 435.86 444.59 432.04 451.31 427.31 456.4 421.84 459.52 416.65 462.35 410.47 463.14 403.46 461.76 396.51 460.31 388.58 457 379.91 451.97 371.23 447.5 362.66 442.16 354.65 436.41 346.73 431.44 339.51 425.89 333.48 419.91 327.68 414.41 323.23 408.09 320.56 401.01 318.24 394.06 317.82 386.09 319.64 377.29 321.83 368.48 326.02 359.7 331.68 351.46 337.53 343.36 344.75 336.03 352.8 330.07 360.93 324.52 369.84 320.62 379.04 318.86 388.27 317.71 397.78 318.83 407.05 322.49" stroke-dasharray="4 2" transform="rotate(80.80000000000001, 400, 400)" opacity="0.67"></path><path d="M402.74 333.28C410.39 336.76 417.03 341.82 422.47 347.93 427.88 354.09 432.05 361.17 434.84 368.69 437.61 376.16 439.06 384.08 439.08 392.05 439.24 400 438.13 408.06 435.71 415.84 433.64 423.61 430.57 430.33 426.8 435.76 421.26 443.09 406.94 449.9 398.19 449.05 392.21 447.92 385.52 445.28 378.32 441.18 371.11 437.46 364.1 432.89 357.64 427.87 351.23 423.34 345.46 418.26 340.7 412.81 336.1 407.68 332.62 401.94 330.6 395.71 328.83 389.56 328.6 382.75 330.19 375.43 332.05 368.12 335.54 361.01 340.23 354.49 345.08 348.06 351.06 342.39 357.75 337.9 364.5 333.69 371.91 330.85 379.55 329.73 387.22 329.03 395.1 330.14 402.74 333.28" stroke-dasharray="7 5" transform="rotate(84.84, 400, 400)" opacity="0.57"></path><path d="M398.33 344.07C410.43 349.86 419.32 360.41 423.87 372.57 428.45 384.72 429.09 398.34 425.16 410.69 422.1 423.03 415.55 431.59 407.23 435.16 399.4 438.5 389.06 436.99 377.56 430.39 366.05 424.77 355.59 416.11 348.3 406.47 341.42 397.63 338.27 386.73 340.74 375.04 343.93 363.34 352.11 353.04 362.64 346.44 373.41 340.5 386.23 339.15 398.33 344.07" stroke-dasharray="9 6" transform="rotate(88.88, 400, 400)" opacity="0.45"></path><path d="M393.99 354.86C402.96 359.22 409.62 367.11 413.15 376.24 416.72 385.43 417.41 395.72 414.6 404.9 412.28 414.08 407.14 420.31 400.6 422.88 394.33 425.4 386.29 424.41 377.66 419.6 369.03 415.33 361.44 408.51 356.33 400.83 351.42 393.57 349.31 384.91 351.29 376.12 353.69 367.33 359.76 360.05 367.55 355.68 375.51 351.65 385 351 393.99 354.86" stroke-dasharray="5 9" transform="rotate(92.92, 400, 400)" opacity="0.10"></path><path d="M389.87 365.65C401.73 371.64 407.8 386.68 404.05 398.82 401.15 410.95 390.15 415.21 378.62 408.81 367.09 403.36 359.23 390.39 361.84 378.63 365.22 366.86 378 360.55 389.87 365.65" stroke-dasharray="2 1" transform="rotate(96.96, 400, 400)" opacity="0.89"></path></g></svg>